<?xml version="1.0" encoding="iso-8859-1"?>
<!-- Uploaded to: SVG Repo, www.svgrepo.com, Generator: SVG Repo Mixer Tools -->
<!DOCTYPE svg PUBLIC "-//W3C//DTD SVG 1.1//EN" "http://www.w3.org/Graphics/SVG/1.1/DTD/svg11.dtd">
<svg fill="#000000" height="800px" width="800px" version="1.1" id="Capa_1" xmlns="http://www.w3.org/2000/svg" xmlns:xlink="http://www.w3.org/1999/xlink" 
	 viewBox="0 0 297 297" xml:space="preserve">
<g>
	<path d="M294.033,82.033l-54.675-54.701c-1.899-1.901-4.479-2.97-7.167-2.97c-2.688,0-5.268,1.068-7.168,2.97L113.636,138.765
		L71.975,97.09c-1.901-1.9-4.479-2.969-7.169-2.969c-2.688,0-5.267,1.069-7.167,2.97L2.966,151.794
		c-3.955,3.958-3.955,10.372,0.001,14.329l103.501,103.545c1.9,1.902,4.478,2.97,7.168,2.97c2.689,0,5.267-1.067,7.167-2.97
		L294.033,96.361C297.989,92.405,297.989,85.99,294.033,82.033z"/>
</g>
</svg>